<svg xmlns="http://www.w3.org/2000/svg" xmlns:xlink="http://www.w3.org/1999/xlink" viewBox="0,0,256,256" width="24px" height="24px" fill-rule="nonzero"><g fill="#20507a" fill-rule="nonzero" stroke="none" stroke-width="1" stroke-linecap="butt" stroke-linejoin="miter" stroke-miterlimit="10" stroke-dasharray="" stroke-dashoffset="0" font-family="none" font-weight="none" font-size="none" text-anchor="none" style="mix-blend-mode: normal"><g transform="scale(10.66667,10.66667)"><path d="M12,2c-5.51101,0 -10,4.489 -10,10c0,5.511 4.48899,10 10,10c5.51101,0 10,-4.489 10,-10c0,-5.511 -4.48899,-10 -10,-10zM12,4c4.43013,0 8,3.56988 8,8c0,4.43012 -3.56987,8 -8,8c-4.43013,0 -8,-3.56988 -8,-8c0,-4.43012 3.56987,-8 8,-8zM6.44531,8.5c-0.381,0 -0.44531,0.18672 -0.44531,0.38672c0,0.361 0.2995,2.30978 1.9375,4.55078c1.187,1.626 2.75172,2.5625 4.13672,2.5625c0.839,0 0.92578,-0.21387 0.92578,-0.54687v-1.48633c0,-0.401 0.09238,-0.4668 0.35938,-0.4668c0.191,0 0.57813,0.125 1.32813,1c0.865,1.009 1.02158,1.5 1.51758,1.5h1.31055c0.304,0 0.47933,-0.127 0.48633,-0.375c0.001,-0.063 -0.0083,-0.13489 -0.0293,-0.21289c-0.097,-0.288 -0.5407,-0.99111 -1.0957,-1.66211c-0.308,-0.372 -0.611,-0.74045 -0.75,-0.93945c-0.095,-0.131 -0.13095,-0.22255 -0.12695,-0.31055c0.004,-0.092 0.052,-0.18169 0.125,-0.30469c-0.013,0 1.67875,-2.37383 1.84375,-3.17383c0.023,-0.076 0.03425,-0.14698 0.03125,-0.20898c-0.008,-0.181 -0.13278,-0.3125 -0.42578,-0.3125h-1.30859c-0.33,0 -0.48327,0.19939 -0.57227,0.40039c0,0 -0.81486,1.67911 -1.75586,2.78711c-0.305,0.32 -0.46,0.3125 -0.625,0.3125c-0.088,0 -0.3125,-0.10639 -0.3125,-0.40039v-2.5918c0,-0.347 -0.08523,-0.50781 -0.36523,-0.50781h-2.32422c-0.204,0 -0.31055,0.15931 -0.31055,0.32031c0,0.333 0.449,0.41461 0.5,1.34961v1.81055c0,0.44 -0.07523,0.51953 -0.24023,0.51953c-0.445,0 -1.3212,-1.5008 -1.9082,-3.4668c-0.127,-0.387 -0.25398,-0.5332 -0.58398,-0.5332z"></path></g></g></svg>